<?xml version="1.0" encoding="UTF-8"?>
<svg xmlns="http://www.w3.org/2000/svg" version="1.1" viewBox="0 0 104 38">
  <!-- Generator: Adobe Illustrator 28.7.1, SVG Export Plug-In . SVG Version: 1.2.0 Build 142)  -->
  <g>
    <g id="Layer_1">
      <path d="M20.7,24.3c0,6.2-5,7.9-11.8,7.9H.2V5.1h7.7c7.3,0,11.8,1.8,11.8,6.9s-2.5,5.3-5,5.8c3,.6,6.1,2.1,6.1,6.5ZM6.6,9.6v6.3h2.4c2.7,0,4.1-1,4.1-3.3s-1.5-3-4.6-3h-1.9ZM14.1,24c0-2.7-1.9-3.8-4.7-3.8h-2.8v7.4h2.4c3,0,5.2-.6,5.2-3.6Z"/>
      <path d="M37.6,11.1l-1,6c-.7-.2-1.2-.3-1.9-.3-2.5,0-3.6,1.8-4.3,4.9v10.5h-6.2V11.4h5.4l.5,4c.9-2.9,3-4.6,5.4-4.6s1.4,0,2.1.3Z"/>
      <path d="M57.4,32.2h-5.4l-.3-2.6c-1.5,2.2-3.5,3.3-6.3,3.3s-5.8-2.5-5.8-6.5v-14.9h6.2v14.2c0,2.1.7,2.7,2,2.7s2.5-.9,3.4-2.4v-14.5h6.2v20.8Z"/>
      <path d="M80.1,17v15.2h-6.2v-14.2c0-2.2-.7-2.8-2-2.8s-2.5,1-3.6,2.7v14.2h-6.2V11.4h5.4l.5,2.5c1.7-2.1,3.7-3.2,6.3-3.2s5.8,2.3,5.8,6.3Z"/>
      <path d="M103.8,21.9c0,6.7-3.8,11.1-10.2,11.1s-10.2-4.1-10.2-11.1,3.8-11.1,10.2-11.1,10.2,4.1,10.2,11.1ZM89.9,21.8c0,4.6,1.3,6.5,3.8,6.5s3.8-2,3.8-6.5-1.3-6.5-3.8-6.5-3.8,2-3.8,6.5Z"/>
    </g>
  </g>
</svg>