<?xml version="1.0" encoding="UTF-8"?>
<svg xmlns="http://www.w3.org/2000/svg" version="1.1" viewBox="0 0 104 16.9">
  <!-- Generator: Adobe Illustrator 28.7.1, SVG Export Plug-In . SVG Version: 1.2.0 Build 142)  -->
  <g>
    <g id="Layer_1">
      <g id="Layer_1-2" data-name="Layer_1">
        <g>
          <path d="M9.2,11.6c0,2.6-2.1,3.3-5,3.3H.6V3.4h3.2c3.1,0,5,.8,5,2.9s-1,2.2-2.1,2.5c1.3.2,2.6.9,2.6,2.7h-.1ZM3.3,5.4v2.7h1c1.1,0,1.7-.4,1.7-1.4s-.6-1.3-1.9-1.3c0,0-.8,0-.8,0ZM6.5,11.5c0-1.2-.8-1.6-2-1.6h-1.2v3.1h1c1.3,0,2.2-.3,2.2-1.5Z"/>
          <path d="M16.3,6.1l-.4,2.5c-.3,0-.5-.1-.8-.1-1.1,0-1.5.8-1.8,2.1v4.4h-2.6V6.2h2.3l.2,1.7c.4-1.2,1.3-2,2.3-2s.6,0,.9.1h-.1Z"/>
          <path d="M24.7,15h-2.3v-1.1c-.7.9-1.6,1.4-2.8,1.4s-2.4-1.1-2.4-2.8v-6.3h2.6v6c0,.9.3,1.2.8,1.2s1-.4,1.4-1v-6.1h2.6v8.8h0Z"/>
          <path d="M34.3,8.5v6.4h-2.6v-6c0-.9-.3-1.2-.8-1.2s-1.1.4-1.5,1.1v6h-2.6V6h2.3l.2,1.1c.7-.9,1.6-1.3,2.7-1.3s2.4,1,2.4,2.6h-.1Z"/>
          <path d="M44.3,10.6c0,2.8-1.6,4.7-4.3,4.7s-4.3-1.7-4.3-4.7,1.6-4.7,4.3-4.7,4.3,1.7,4.3,4.7ZM38.4,10.6c0,2,.5,2.8,1.6,2.8s1.6-.8,1.6-2.7-.5-2.8-1.6-2.8-1.6.8-1.6,2.7Z"/>
          <path d="M58.6,4.6l-1.4,1.4c-.8-.6-1.4-.9-2.3-.9-1.6,0-2.8,1.2-2.8,4s.8,4,2.4,4,1.1-.1,1.6-.4v-2.6h-1.5l-.3-1.9h4.4v5.7c-1.2.8-2.7,1.2-4.1,1.2-3.5,0-5.3-2.1-5.3-6s2.4-6,5.5-6,2.9.6,3.8,1.4h0Z"/>
          <path d="M67.9,13.5l-.5,1.7c-1,0-1.7-.4-2.1-1.3-.6,1-1.6,1.3-2.6,1.3-1.8,0-2.9-1.1-2.9-2.7s1.5-3,4.1-3h.9v-.4c0-1-.4-1.4-1.5-1.4s-1.4.2-2.3.5l-.6-1.7c1.1-.4,2.3-.6,3.3-.6,2.5,0,3.6,1.1,3.6,3.1v3.4c0,.7.2.9.6,1.1ZM64.8,12.5v-1.6h-.6c-1.2,0-1.8.4-1.8,1.3s.4,1.1,1,1.1,1.1-.3,1.4-.8Z"/>
          <path d="M77.6,10.6c0,2.7-1.3,4.7-3.5,4.7s-1.8-.4-2.3-1.1v.8h-2.4V2.7l2.6-.3v4.7c.5-.7,1.4-1.2,2.4-1.2,2.1,0,3.3,1.7,3.3,4.7h0ZM74.9,10.6c0-2.2-.6-2.8-1.4-2.8s-1.1.4-1.5,1v3.7c.3.5.8.8,1.4.8.9,0,1.5-.7,1.5-2.8h0Z"/>
          <path d="M84.8,6.1l-.4,2.5c-.3,0-.5-.1-.8-.1-1.1,0-1.5.8-1.8,2.1v4.4h-2.6V6.2h2.3l.2,1.7c.4-1.2,1.3-2,2.3-2s.6,0,.9.1h0Z"/>
          <path d="M88.6,3c0,.8-.6,1.5-1.6,1.5s-1.5-.6-1.5-1.5.6-1.5,1.5-1.5,1.6.6,1.6,1.5ZM88.4,15h-2.6V6.2h2.6v8.8Z"/>
          <path d="M98,11.3h-5.4c.2,1.6.9,2,2,2s1.3-.2,2.1-.8l1.1,1.5c-.9.7-2,1.2-3.4,1.2-2.9,0-4.4-1.9-4.4-4.6s1.4-4.7,4.1-4.7,4,1.7,4,4.5,0,.7,0,.9h0ZM95.5,9.7c0-1.2-.4-2-1.4-2s-1.4.5-1.5,2.1h2.9Z"/>
          <path d="M99.4,12.7V2.7l2.6-.3v10.2c0,.4,0,.5.5.5h.4l.5,1.9c-.4.2-.9.3-1.6.3-1.5,0-2.4-.9-2.4-2.5h0Z"/>
        </g>
      </g>
    </g>
  </g>
</svg>